<svg width="72" height="78" viewBox="0 0 72 78" fill="none" xmlns="http://www.w3.org/2000/svg">
<path fill-rule="evenodd" clip-rule="evenodd" d="M53.9386 19.333C53.9386 30.273 45.9113 39.167 36.041 39.167C26.1297 39.167 18.1433 30.3148 18.1024 19.4165C18.0614 8.68523 26.1706 0 36.041 0C45.9522 0 53.9386 8.60171 53.9386 19.333ZM25.5154 19.4165C25.5563 26.5567 30.3481 31.9433 36.041 31.9433C41.7338 31.9433 46.5256 26.4732 46.5256 19.333C46.5256 12.4015 41.7747 7.22377 36.041 7.22377C30.3072 7.22377 25.5154 12.485 25.5154 19.4165ZM61.5563 78C68.6007 78 72 75.7452 72 70.8597C72 59.4186 57.9932 44.0525 36 44.0525C14.0068 44.0525 0 59.4186 0 70.8597C0 75.7452 3.39932 78 10.4846 78H61.5563ZM7.78157 69.6906C7.78157 70.4839 8.15017 70.7762 9.09215 70.7762H62.9079C63.8498 70.7762 64.2594 70.4839 64.2594 69.6906C64.2594 63.3019 54.1024 51.2762 36 51.2762C17.8976 51.2762 7.78157 63.3019 7.78157 69.6906Z"/>
</svg>
