<svg width="72" height="72" viewBox="0 0 72 72" fill="none" xmlns="http://www.w3.org/2000/svg">
<g clip-path="url(#clip0_0_3175)">
<rect width="72" height="72" rx="36" fill="#4CD964"/>
<path fill-rule="evenodd" clip-rule="evenodd" d="M30.1778 41.3888C30.1778 41.3888 42.7713 54.1016 49.496 50.2855C49.496 50.2855 51.5674 48.4806 51.9976 45.7273C52.0402 45.454 51.496 45.1068 51.3262 44.9737C50.7704 44.5359 50.1709 44.1512 49.575 43.7716C48.1451 42.8606 46.6766 42.0108 45.2182 41.1458C44.7581 40.873 44.2585 40.5628 43.7138 40.7156C43.3991 40.8042 43.0753 40.9009 42.786 41.0527C41.7614 41.5902 40.9187 42.0948 39.808 42.5994C39.808 42.5994 38.033 42.4592 33.8008 38.1739C29.3022 33.6192 29.172 32.1241 29.172 32.1241C29.7572 31.2951 30.2908 30.4261 30.7327 29.5115C30.9242 29.1157 31.1857 28.7361 31.2971 28.3064C31.4106 27.8737 31.1786 27.5644 30.985 27.1853C30.5523 26.3386 30.0906 25.507 29.6138 24.6846C28.7894 23.2634 27.9487 21.784 26.8963 20.5146C26.7858 20.3815 26.5269 19.9862 26.3156 20.0004C23.9781 20.1578 21.6745 22.4966 21.6745 22.4966C18.0556 29.1127 30.1778 41.3888 30.1778 41.3888Z" fill="white"/>
</g>
<defs>
<clipPath id="clip0_0_3175">
<rect width="72" height="72" fill="white"/>
</clipPath>
</defs>
</svg>
