<svg width="68" height="68" viewBox="0 0 68 68" fill="none" xmlns="http://www.w3.org/2000/svg">
<g filter="url(#filter0_d)">
<circle cx="34" cy="32" r="28" fill="#C62828"/>
</g>
<path fill-rule="evenodd" clip-rule="evenodd" d="M38.5416 29.6688C35.5989 28.7108 32.408 28.7177 29.4584 29.6688V32.7011C29.4584 33.0732 29.2448 33.4109 28.9209 33.5694C27.894 34.0863 26.9223 34.7823 26.0678 35.6369C25.6887 36.0159 25.0685 36.0159 24.6894 35.6369L22.2843 33.2317C21.9052 32.8527 21.9052 32.2324 22.2843 31.8534C28.7555 25.3822 39.2445 25.3822 45.7157 31.8534C46.0948 32.2324 46.0948 32.8527 45.7157 33.2317L43.3037 35.6438C42.9246 36.0228 42.3044 36.0228 41.9253 35.6438C41.0639 34.7823 40.0991 34.0932 39.0722 33.5763C38.7552 33.4109 38.5416 33.087 38.5416 32.7011V29.6688Z" fill="white"/>
<defs>
<filter id="filter0_d" x="0" y="0" width="68" height="68" filterUnits="userSpaceOnUse" color-interpolation-filters="sRGB">
<feFlood flood-opacity="0" result="BackgroundImageFix"/>
<feColorMatrix in="SourceAlpha" type="matrix" values="0 0 0 0 0 0 0 0 0 0 0 0 0 0 0 0 0 0 127 0" result="hardAlpha"/>
<feOffset dy="2"/>
<feGaussianBlur stdDeviation="3"/>
<feColorMatrix type="matrix" values="0 0 0 0 0 0 0 0 0 0 0 0 0 0 0 0 0 0 0.5 0"/>
<feBlend mode="normal" in2="BackgroundImageFix" result="effect1_dropShadow"/>
<feBlend mode="normal" in="SourceGraphic" in2="effect1_dropShadow" result="shape"/>
</filter>
</defs>
</svg>
