<svg width="20" height="17" viewBox="0 0 20 17" fill="none" xmlns="http://www.w3.org/2000/svg">
<path fill-rule="evenodd" clip-rule="evenodd" d="M12 4C12 6.21 10.21 8 8 8C5.79 8 4 6.21 4 4C4 1.79 5.79 0 8 0C10.21 0 12 1.79 12 4ZM10 4C10 2.9 9.1 2 8 2C6.9 2 6 2.9 6 4C6 5.1 6.9 6 8 6C9.1 6 10 5.1 10 4ZM2 14V13.35C2 13.01 2.16 12.69 2.41 12.54C4.1 11.53 6.03 11 8 11C8.03 11 8.05 11 8.08 11.01C8.18 10.31 8.38 9.64 8.67 9.03C8.45 9.01 8.23 9 8 9C5.58 9 3.32 9.67 1.39 10.82C0.51 11.34 0 12.32 0 13.35V16H9.26C8.84 15.4 8.51 14.72 8.29 14H2ZM18.6938 11.3963L18.6938 11.3962L18.69 11.37L19.83 10.36L18.83 8.63L17.38 9.12C17.06 8.85 16.7 8.64 16.3 8.49L16 7H14L13.7 8.49C13.3 8.64 12.94 8.85 12.62 9.12L11.17 8.63L10.17 10.36L11.31 11.37L11.3062 11.3962C11.2775 11.5967 11.25 11.7892 11.25 12C11.25 12.2108 11.2775 12.4033 11.3062 12.6038L11.31 12.63L10.17 13.64L11.17 15.37L12.62 14.88C12.94 15.15 13.3 15.36 13.7 15.51L14 17H16L16.3 15.51C16.7 15.36 17.06 15.15 17.38 14.88L18.83 15.37L19.83 13.64L18.69 12.63L18.6938 12.6038L18.6938 12.6037C18.7225 12.4033 18.75 12.2108 18.75 12C18.75 11.7892 18.7225 11.5967 18.6938 11.3963ZM15 14C13.9 14 13 13.1 13 12C13 10.9 13.9 10 15 10C16.1 10 17 10.9 17 12C17 13.1 16.1 14 15 14Z"/>
</svg>
