<svg width="24" height="24" viewBox="0 0 24 24" fill="none" xmlns="http://www.w3.org/2000/svg">
<path d="M12.0474 20.4736C16.6792 20.4736 20.5142 16.6304 20.5142 12.0068C20.5142 7.375 16.6709 3.54004 12.0391 3.54004C7.41553 3.54004 3.58057 7.375 3.58057 12.0068C3.58057 16.6304 7.42383 20.4736 12.0474 20.4736ZM7.39893 10.3052C7.01709 10.3052 6.74316 10.0645 6.74316 9.69922C6.74316 9.33398 7.01709 9.09326 7.39893 9.09326H16.729C17.1025 9.09326 17.3848 9.33398 17.3848 9.69922C17.3848 10.0645 17.1025 10.3052 16.729 10.3052H7.39893ZM8.66895 13.144C8.27881 13.144 8.01318 12.9033 8.01318 12.5298C8.01318 12.1646 8.27881 11.9238 8.66895 11.9238H15.459C15.8408 11.9238 16.1064 12.1646 16.1064 12.5298C16.1064 12.9033 15.8408 13.144 15.459 13.144H8.66895ZM9.98877 15.9829C9.60693 15.9829 9.34131 15.7339 9.34131 15.3687C9.34131 15.0117 9.60693 14.771 9.98877 14.771H14.1309C14.5127 14.771 14.7866 15.0117 14.7866 15.3687C14.7866 15.7339 14.5127 15.9829 14.1309 15.9829H9.98877Z" fill="#007AFF"/>
</svg>
