<svg width="24" height="24" viewBox="0 0 24 24" fill="none" xmlns="http://www.w3.org/2000/svg">
<path d="M12.0474 20.4736C16.6792 20.4736 20.5142 16.6304 20.5142 12.0068C20.5142 7.375 16.6709 3.54004 12.0391 3.54004C7.41553 3.54004 3.58057 7.375 3.58057 12.0068C3.58057 16.6304 7.42383 20.4736 12.0474 20.4736ZM12.0474 19.0625C8.12939 19.0625 5 15.9248 5 12.0068C5 8.08887 8.12109 4.95117 12.0391 4.95117C15.957 4.95117 19.0947 8.08887 19.103 12.0068C19.1113 15.9248 15.9653 19.0625 12.0474 19.0625ZM7.53174 10.3716H16.5796C16.9448 10.3716 17.2104 10.1392 17.2104 9.78223C17.2104 9.43359 16.9448 9.20117 16.5796 9.20117H7.53174C7.1582 9.20117 6.90088 9.43359 6.90088 9.78223C6.90088 10.1392 7.1582 10.3716 7.53174 10.3716ZM8.76025 13.1191H15.3511C15.7163 13.1191 15.9736 12.8867 15.9736 12.5298C15.9736 12.1812 15.7163 11.9487 15.3511 11.9487H8.76025C8.38672 11.9487 8.12939 12.1812 8.12939 12.5298C8.12939 12.8867 8.38672 13.1191 8.76025 13.1191ZM10.0386 15.875H14.0645C14.4297 15.875 14.6953 15.6343 14.6953 15.2856C14.6953 14.937 14.4297 14.7046 14.0645 14.7046H10.0386C9.67334 14.7046 9.41602 14.937 9.41602 15.2856C9.41602 15.6343 9.67334 15.875 10.0386 15.875Z" fill="#007AFF"/>
</svg>
