<svg width="24" height="24" viewBox="0 0 24 24" fill="none" xmlns="http://www.w3.org/2000/svg">
<path d="M5.18701 12.0068C5.18701 12.4136 5.52734 12.7456 5.92578 12.7456H11.2964V18.1162C11.2964 18.5146 11.6284 18.855 12.0352 18.855C12.4419 18.855 12.7822 18.5146 12.7822 18.1162V12.7456H18.1445C18.543 12.7456 18.8833 12.4136 18.8833 12.0068C18.8833 11.6001 18.543 11.2598 18.1445 11.2598H12.7822V5.89746C12.7822 5.49902 12.4419 5.15869 12.0352 5.15869C11.6284 5.15869 11.2964 5.49902 11.2964 5.89746V11.2598H5.92578C5.52734 11.2598 5.18701 11.6001 5.18701 12.0068Z" fill="#007AFF"/>
</svg>
