<svg width="24" height="16" viewBox="0 0 24 16" fill="none" xmlns="http://www.w3.org/2000/svg">
<path opacity="0.870722" fill-rule="evenodd" clip-rule="evenodd" d="M16.3636 6.54545C18.1745 6.54545 19.6255 5.08364 19.6255 3.27273C19.6255 1.46182 18.1745 0 16.3636 0C14.5527 0 13.0909 1.46182 13.0909 3.27273C13.0909 5.08364 14.5527 6.54545 16.3636 6.54545ZM7.63636 6.54545C9.44727 6.54545 10.8982 5.08364 10.8982 3.27273C10.8982 1.46182 9.44727 0 7.63636 0C5.82545 0 4.36364 1.46182 4.36364 3.27273C4.36364 5.08364 5.82545 6.54545 7.63636 6.54545ZM7.63636 8.72727C5.09455 8.72727 0 10.0036 0 12.5455V15.2727H15.2727V12.5455C15.2727 10.0036 10.1782 8.72727 7.63636 8.72727ZM16.3636 8.72727C16.0473 8.72727 15.6873 8.74909 15.3055 8.78182C16.5709 9.69818 17.4545 10.9309 17.4545 12.5455V15.2727H24V12.5455C24 10.0036 18.9055 8.72727 16.3636 8.72727Z"/>
</svg>
