<svg width="24" height="24" viewBox="0 0 24 24" fill="none" xmlns="http://www.w3.org/2000/svg">
<path d="M12.0474 20.4736C16.6792 20.4736 20.5142 16.6304 20.5142 12.0068C20.5142 7.375 16.6709 3.54004 12.0391 3.54004C7.41553 3.54004 3.58057 7.375 3.58057 12.0068C3.58057 16.6304 7.42383 20.4736 12.0474 20.4736ZM12.0474 19.0625C8.12939 19.0625 5 15.9248 5 12.0068C5 8.08887 8.12109 4.95117 12.0391 4.95117C15.957 4.95117 19.0947 8.08887 19.103 12.0068C19.1113 15.9248 15.9653 19.0625 12.0474 19.0625ZM11.9727 9.05176C12.5786 9.05176 13.0518 8.57031 13.0518 7.96436C13.0518 7.3584 12.5786 6.87695 11.9727 6.87695C11.375 6.87695 10.8936 7.3584 10.8936 7.96436C10.8936 8.57031 11.375 9.05176 11.9727 9.05176ZM10.5947 16.5723H13.9731C14.3135 16.5723 14.5791 16.3232 14.5791 15.9829C14.5791 15.6592 14.3135 15.4019 13.9731 15.4019H12.9438V11.1768C12.9438 10.7285 12.7197 10.4297 12.2964 10.4297H10.7358C10.3955 10.4297 10.1299 10.687 10.1299 11.0107C10.1299 11.3511 10.3955 11.6001 10.7358 11.6001H11.624V15.4019H10.5947C10.2544 15.4019 9.98877 15.6592 9.98877 15.9829C9.98877 16.3232 10.2544 16.5723 10.5947 16.5723Z"/>
</svg>
