<svg width="19" height="19" viewBox="0 0 19 19" fill="none" xmlns="http://www.w3.org/2000/svg">
<path fill-rule="evenodd" clip-rule="evenodd" d="M4.75 2.375C4.75 3.68668 3.68668 4.75 2.375 4.75C1.06332 4.75 0 3.68668 0 2.375C0 1.06332 1.06332 0 2.375 0C3.68668 0 4.75 1.06332 4.75 2.375ZM11.875 2.375C11.875 3.68668 10.8117 4.75 9.5 4.75C8.18832 4.75 7.125 3.68668 7.125 2.375C7.125 1.06332 8.18832 0 9.5 0C10.8117 0 11.875 1.06332 11.875 2.375ZM16.625 4.75C17.9367 4.75 19 3.68668 19 2.375C19 1.06332 17.9367 0 16.625 0C15.3133 0 14.25 1.06332 14.25 2.375C14.25 3.68668 15.3133 4.75 16.625 4.75ZM4.75 9.5C4.75 10.8117 3.68668 11.875 2.375 11.875C1.06332 11.875 0 10.8117 0 9.5C0 8.18832 1.06332 7.125 2.375 7.125C3.68668 7.125 4.75 8.18832 4.75 9.5ZM9.5 11.875C10.8117 11.875 11.875 10.8117 11.875 9.5C11.875 8.18832 10.8117 7.125 9.5 7.125C8.18832 7.125 7.125 8.18832 7.125 9.5C7.125 10.8117 8.18832 11.875 9.5 11.875ZM11.875 16.625C11.875 17.9367 10.8117 19 9.5 19C8.18832 19 7.125 17.9367 7.125 16.625C7.125 15.3133 8.18832 14.25 9.5 14.25C10.8117 14.25 11.875 15.3133 11.875 16.625ZM16.625 11.875C17.9367 11.875 19 10.8117 19 9.5C19 8.18832 17.9367 7.125 16.625 7.125C15.3133 7.125 14.25 8.18832 14.25 9.5C14.25 10.8117 15.3133 11.875 16.625 11.875Z" />
</svg>
