<svg width="20" height="20" viewBox="0 0 20 20" fill="none" xmlns="http://www.w3.org/2000/svg">
<path opacity="0.870722" fill-rule="evenodd" clip-rule="evenodd" d="M2.34018 0.929932L0.930176 2.33993L5.29018 6.69993L5.00018 6.99993H1.00018V12.9999H5.00018L10.0002 17.9999V11.4099L14.1802 15.5899C13.5302 16.0799 12.8002 16.4699 12.0002 16.6999V18.7599C13.3402 18.4599 14.5702 17.8399 15.6102 17.0099L17.6602 19.0599L19.0702 17.6499L2.34018 0.929932ZM8.00018 13.1699L5.83018 10.9999H3.00018V8.99993H5.83018L6.71018 8.11993L8.00018 9.40993V13.1699ZM17.0002 9.99993C17.0002 10.8199 16.8502 11.6099 16.5902 12.3399L18.1202 13.8699C18.6802 12.6999 19.0002 11.3899 19.0002 9.99993C19.0002 5.71993 16.0102 2.13993 12.0002 1.22993V3.28993C14.8902 4.14993 17.0002 6.82993 17.0002 9.99993ZM10.0002 1.99993L8.12018 3.87993L10.0002 5.75993V1.99993ZM14.5002 9.99993C14.5002 8.22993 13.4802 6.70993 12.0002 5.96993V7.75993L14.4802 10.2399C14.4902 10.1599 14.5002 10.0799 14.5002 9.99993Z"/>
</svg>
