<svg width="20" height="20" viewBox="0 0 20 20" fill="none" xmlns="http://www.w3.org/2000/svg">
<path fill-rule="evenodd" clip-rule="evenodd" d="M5.92116 13.7992C5.92116 13.7992 14.046 22.0011 18.3845 19.539C18.3845 19.539 19.7209 18.3746 19.9985 16.5982C20.0259 16.4219 19.6748 16.1979 19.5653 16.112C19.2067 15.8296 18.8199 15.5814 18.4355 15.3365C17.5129 14.7488 16.5655 14.2005 15.6247 13.6425C15.3278 13.4665 15.0055 13.2663 14.6541 13.3649C14.451 13.4221 14.2421 13.4844 14.0555 13.5824C13.3945 13.9292 12.8508 14.2547 12.1342 14.5803C12.1342 14.5803 10.989 14.4898 8.25861 11.7251C5.35625 8.78659 5.27223 7.82201 5.27223 7.82201C5.64982 7.28715 5.99406 6.7265 6.27913 6.13645C6.40271 5.8811 6.5714 5.6362 6.64332 5.35897C6.71655 5.07979 6.56682 4.88028 6.44194 4.6357C6.16275 4.08941 5.86493 3.55292 5.5573 3.0223C5.02541 2.1054 4.48306 1.15094 3.80405 0.331997C3.73279 0.246119 3.56573 -0.0089033 3.42941 0.000239627C1.92135 0.101791 0.435188 1.6107 0.435188 1.6107C-1.89964 5.87914 5.92116 13.7992 5.92116 13.7992Z"/>
</svg>
