<svg width="14" height="14" viewBox="0 0 14 14" fill="none" xmlns="http://www.w3.org/2000/svg">
<path d="M0.0522461 7.00684C0.0522461 7.52148 0.475586 7.93652 0.981934 7.93652H6.07031V13.0249C6.07031 13.5312 6.49365 13.9546 7 13.9546C7.50635 13.9546 7.92969 13.5312 7.92969 13.0249V7.93652H13.0181C13.5244 7.93652 13.9478 7.52148 13.9478 7.00684C13.9478 6.50049 13.5244 6.07715 13.0181 6.07715H7.92969V0.98877C7.92969 0.482422 7.50635 0.059082 7 0.059082C6.49365 0.059082 6.07031 0.482422 6.07031 0.98877V6.07715H0.981934C0.475586 6.07715 0.0522461 6.50049 0.0522461 7.00684Z"/>
</svg>
