<svg width="80" height="80" viewBox="0 0 80 80" fill="none" xmlns="http://www.w3.org/2000/svg">
<path fill-rule="evenodd" clip-rule="evenodd" d="M40 80C61.878 80 80 61.9167 80 40C80 18.122 61.878 0 39.9613 0C18.0833 0 0 18.122 0 40C0 61.9167 18.122 80 40 80ZM63.6592 61.8393C59.5547 57.2701 51.0358 53.3591 40 53.3591C28.9642 53.3591 20.4453 57.2701 16.3795 61.8006C11.1133 56.1084 7.89932 48.4414 7.89932 40C7.89932 22.1878 22.1491 7.89932 39.9613 7.89932C57.7735 7.89932 72.1007 22.1878 72.1394 40C72.1394 48.4414 68.9255 56.1084 63.6592 61.8393ZM53.3204 32.333C53.3204 40.6583 47.5121 47.0474 40 47.0087C32.5266 46.9313 26.7183 40.6583 26.6796 32.333C26.6409 24.5111 32.5653 18.0058 40 18.0058C47.4734 18.0058 53.3204 24.5111 53.3204 32.333Z" fill="#E8E8EA"/>
</svg>
