<svg width="18" height="18" viewBox="0 0 18 18" fill="none" xmlns="http://www.w3.org/2000/svg">
<path fill-rule="evenodd" clip-rule="evenodd" d="M8.66724 17.4336C13.2991 17.4336 17.134 13.5903 17.134 8.9668C17.134 4.33496 13.2908 0.5 8.65894 0.5C4.0354 0.5 0.200439 4.33496 0.200439 8.9668C0.200439 13.5903 4.0437 17.4336 8.66724 17.4336ZM8.66724 16.0225C4.74927 16.0225 1.61987 12.8848 1.61987 8.9668C1.61987 5.04883 4.74097 1.91113 8.65894 1.91113C12.5769 1.91113 15.7146 5.04883 15.7229 8.9668C15.7312 12.8848 12.5852 16.0225 8.66724 16.0225ZM8.61717 10.46C8.10641 10.46 7.74159 10.1113 7.727 9.61735L7.61025 5.46238C7.59566 4.86674 8.00426 4.45996 8.61717 4.45996C9.21548 4.45996 9.62409 4.86674 9.60949 5.46238L9.49275 9.61735C9.47816 10.1113 9.12792 10.46 8.61717 10.46ZM8.60396 13.46C8.05958 13.46 7.60987 13.0221 7.60987 12.4659C7.60987 11.9215 8.07141 11.46 8.60396 11.46C9.16017 11.46 9.60987 11.9215 9.60987 12.4659C9.60987 13.0221 9.16017 13.46 8.60396 13.46Z"/>
</svg>
