<svg width="12" height="10" viewBox="0 0 12 10" fill="none" xmlns="http://www.w3.org/2000/svg">
<path fill-rule="evenodd" clip-rule="evenodd" d="M0 1.5C0 0.947715 0.447715 0.5 1 0.5H8C8.55229 0.5 9 0.947715 9 1.5V8.5C9 9.05229 8.55229 9.5 8 9.5H1C0.447715 9.5 0 9.05229 0 8.5V1.5ZM9.5 3.71545C9.5 3.59949 9.54031 3.48713 9.61402 3.39762L11.6456 0.930387C11.7649 0.785532 12 0.869875 12 1.05752V8.95248C12 9.13897 11.7673 9.22398 11.6471 9.0814L9.61772 6.67426C9.5417 6.58408 9.5 6.46993 9.5 6.35198V3.71545ZM5.70528 8H1.5V3.79472H2.54953V6.20707L6.38491 2.3717L6.7566 2L7.5 2.7434L7.1283 3.11509L3.30519 6.93821H5.70528V8Z" fill="#8E8E93"/>
</svg>
