<svg width="24" height="24" viewBox="0 0 24 24" fill="none" xmlns="http://www.w3.org/2000/svg">
<path fill-rule="evenodd" clip-rule="evenodd" d="M3.25 0C1.455 0 0 1.455 0 3.25C0 5.045 1.455 6.5 3.25 6.5C5.045 6.5 6.5 5.045 6.5 3.25C6.5 1.455 5.045 0 3.25 0ZM12 0C10.205 0 8.75 1.455 8.75 3.25C8.75 5.045 10.205 6.5 12 6.5C13.795 6.5 15.25 5.045 15.25 3.25C15.25 1.455 13.795 0 12 0ZM17.5 3.25C17.5 1.455 18.955 0 20.75 0C22.545 0 24 1.455 24 3.25C24 5.045 22.545 6.5 20.75 6.5C18.955 6.5 17.5 5.045 17.5 3.25ZM3.25 8.75C1.455 8.75 0 10.205 0 12C0 13.795 1.455 15.25 3.25 15.25C5.045 15.25 6.5 13.795 6.5 12C6.5 10.205 5.045 8.75 3.25 8.75ZM8.75 12C8.75 10.205 10.205 8.75 12 8.75C13.795 8.75 15.25 10.205 15.25 12C15.25 13.795 13.795 15.25 12 15.25C10.205 15.25 8.75 13.795 8.75 12ZM20.75 8.75C18.955 8.75 17.5 10.205 17.5 12C17.5 13.795 18.955 15.25 20.75 15.25C22.545 15.25 24 13.795 24 12C24 10.205 22.545 8.75 20.75 8.75ZM0 20.75C0 18.955 1.455 17.5 3.25 17.5C5.045 17.5 6.5 18.955 6.5 20.75C6.5 22.545 5.045 24 3.25 24C1.455 24 0 22.545 0 20.75ZM12 17.5C10.205 17.5 8.75 18.955 8.75 20.75C8.75 22.545 10.205 24 12 24C13.795 24 15.25 22.545 15.25 20.75C15.25 18.955 13.795 17.5 12 17.5ZM17.5 20.75C17.5 18.955 18.955 17.5 20.75 17.5C22.545 17.5 24 18.955 24 20.75C24 22.545 22.545 24 20.75 24C18.955 24 17.5 22.545 17.5 20.75Z"/>
</svg>
