<svg width="44" height="32" viewBox="0 0 44 32" fill="none" xmlns="http://www.w3.org/2000/svg">
<path fill-rule="evenodd" clip-rule="evenodd" d="M16 24.7998C16.9509 24.7998 17.8943 24.6872 18.8057 24.4736C16.448 22.4316 14.9478 19.5982 14.9478 16.3999C14.9478 12.2977 17.2281 8.86102 20.7048 6.86614C19.2764 6.30858 17.6806 6.00253 16 6.00002C9.95044 5.99096 5 9.95096 5 15.3999C5 18.8845 7.1956 21.7564 10.2513 23.3743C10.1165 24.2047 9.66339 25.1599 8.5 25.9824C9.82054 26.1092 10.9817 25.5256 11.8761 25.0761C12.4302 24.7976 12.8818 24.5706 13.2056 24.5957C13.4598 24.6155 13.73 24.6418 14.0087 24.6689C14.6579 24.7321 15.3532 24.7998 16 24.7998ZM28 7.00002C34.0496 6.99096 39 10.951 39 16.3999C39 19.8845 36.8044 22.7564 33.7487 24.3743C33.8835 25.2047 34.3366 26.1599 35.5 26.9824C34.1795 27.1092 33.0183 26.5256 32.1239 26.0761C31.5698 25.7976 31.1182 25.5706 30.7944 25.5957C30.5402 25.6155 30.27 25.6418 29.9913 25.6689C29.3421 25.7321 28.6468 25.7998 28 25.7998C22.3689 25.7998 17 21.8489 17 16.3999C17 10.951 21.9504 7.00907 28 7.00002Z"/>
</svg>
