<svg width="24" height="24" viewBox="0 0 24 24" fill="none" xmlns="http://www.w3.org/2000/svg">
<path d="M19.9331 5.2002L20.5308 4.58594C20.813 4.28711 20.813 3.88867 20.5308 3.61475L20.3398 3.41553C20.0825 3.1582 19.6758 3.19141 19.4019 3.45703L18.7959 4.05469L19.9331 5.2002ZM9.94727 14.2563L11.5659 13.5508L19.3188 5.80615L18.1816 4.68555L10.437 12.4302L9.68994 13.9907C9.62354 14.1318 9.78955 14.3228 9.94727 14.2563ZM6.92578 19.6353H16.6709C18.165 19.6353 19.0283 18.772 19.0283 17.062V8.18848L17.6919 9.5249V16.9956C17.6919 17.8589 17.2271 18.2988 16.6543 18.2988H6.95068C6.12061 18.2988 5.65576 17.8589 5.65576 16.9956V7.57422C5.65576 6.71094 6.12061 6.2627 6.95068 6.2627H14.5127L15.8491 4.92627H6.92578C5.19922 4.92627 4.31934 5.78955 4.31934 7.49951V17.062C4.31934 18.7803 5.19922 19.6353 6.92578 19.6353Z" fill="#007AFF"/>
</svg>
