<svg width="18" height="27" viewBox="0 0 18 27" fill="none" xmlns="http://www.w3.org/2000/svg">
<path fill-rule="evenodd" clip-rule="evenodd" d="M9.20312 26.5977C4.4043 26.5977 0.958984 23.6445 0.677734 19.3027H3.78906C4.07031 22.0098 6.25 23.8203 9.23828 23.8203C12.5605 23.8203 14.7578 21.4297 14.7578 17.8789C14.7578 14.4512 12.5605 12.1484 9.36133 12.1484C6.95312 12.1484 5.05469 13.2559 4.05273 15.1367H1.08203L2.54102 0.634766H16.6211V3.46484H5.01953L4.22852 11.7266H4.50977C5.74023 10.1973 7.62109 9.42383 10.1523 9.42383C14.4062 9.42383 17.9219 12.7637 17.9219 17.791C17.9219 23.0117 14.3887 26.5977 9.20312 26.5977Z" fill-opacity="0.9"/>
</svg>
