<svg width="15" height="24" viewBox="0 0 15 24" fill="none" xmlns="http://www.w3.org/2000/svg">
<path opacity="0.870722" fill-rule="evenodd" clip-rule="evenodd" d="M0.952344 12.7031L2.21797 0.25H13.2648V1.98438H3.81172L2.96797 10.0938C3.54089 9.57291 4.17109 9.17188 4.85859 8.89062C5.5461 8.60937 6.47838 8.45312 7.65547 8.42188C9.59298 8.39062 11.1555 9.04166 12.343 10.375C13.5305 11.7083 14.1242 13.5 14.1242 15.75C14.1242 18.0521 13.5487 19.8906 12.3977 21.2656C11.2466 22.6406 9.51486 23.3281 7.20234 23.3281C5.32733 23.3281 3.76485 22.8047 2.51484 21.7578C1.26484 20.7109 0.665885 19.1615 0.717969 17.1094L0.749219 17.0156H2.42109C2.42109 18.5469 2.85599 19.7187 3.72578 20.5312C4.59558 21.3438 5.75442 21.75 7.20234 21.75C8.88985 21.75 10.1529 21.2396 10.9914 20.2188C11.83 19.1979 12.2492 17.7188 12.2492 15.7812C12.2492 14.0833 11.83 12.7214 10.9914 11.6953C10.1529 10.6693 8.97839 10.1562 7.46797 10.1562C6.00963 10.1562 4.89766 10.388 4.13203 10.8516C3.3664 11.3151 2.81172 12.0156 2.46797 12.9531L0.952344 12.7031Z"/>
</svg>
