<svg width="20" height="27" viewBox="0 0 20 27" fill="none" xmlns="http://www.w3.org/2000/svg">
<path fill-rule="evenodd" clip-rule="evenodd" d="M9.53516 26.5801C5.22852 26.5801 2.01172 24.084 1.2207 20.0938H4.47266C5.14062 22.3789 7.07422 23.7676 9.57031 23.7676C13.7012 23.7676 16.0391 20.1113 16.2148 13.3613H15.9336C14.6855 15.8223 12.207 17.2637 9.18359 17.2637C4.34961 17.2637 0.851562 13.6953 0.851562 8.77344C0.851562 3.67578 4.54297 0.0371094 9.74609 0.0371094C15.2129 0.0371094 19.291 4.23828 19.291 12.8691C19.291 21.5879 15.7402 26.5801 9.53516 26.5801ZM9.74609 14.5215C13.1035 14.5215 15.5117 12.1309 15.5117 8.77344C15.5117 5.38086 13.0332 2.81445 9.78125 2.81445C6.5293 2.81445 4.05078 5.3457 4.05078 8.66797C4.05078 12.1309 6.38867 14.5215 9.74609 14.5215Z" fill-opacity="0.9"/>
</svg>
