<svg width="15" height="25" viewBox="0 0 15 25" fill="none" xmlns="http://www.w3.org/2000/svg">
<path opacity="0.870722" fill-rule="evenodd" clip-rule="evenodd" d="M14.5469 15.1719C14.5469 18.1094 13.9115 20.3698 12.6406 21.9531C11.3698 23.5365 9.60418 24.3281 7.34375 24.3281C5.09374 24.3281 3.32553 23.5339 2.03906 21.9453C0.752598 20.3568 0.109375 18.099 0.109375 15.1719V10.0938C0.109375 7.16665 0.744785 4.90626 2.01562 3.3125C3.28646 1.71874 5.05207 0.921875 7.3125 0.921875C9.57293 0.921875 11.3437 1.71874 12.625 3.3125C13.9063 4.90626 14.5469 7.16665 14.5469 10.0938V15.1719ZM12.6719 9.78125C12.6719 7.44791 12.2135 5.65365 11.2969 4.39844C10.3802 3.14322 9.05209 2.51562 7.3125 2.51562C5.57291 2.51562 4.25 3.14322 3.34375 4.39844C2.4375 5.65365 1.98438 7.44791 1.98438 9.78125V15.4531C1.98438 17.7656 2.44531 19.5599 3.36719 20.8359C4.28907 22.112 5.61457 22.75 7.34375 22.75C9.07293 22.75 10.3932 22.1146 11.3047 20.8438C12.2162 19.5729 12.6719 17.7761 12.6719 15.4531V9.78125Z"/>
</svg>
