<svg width="16" height="25" viewBox="0 0 16 25" fill="none" xmlns="http://www.w3.org/2000/svg">
<path opacity="0.870722" fill-rule="evenodd" clip-rule="evenodd" d="M14.5625 7.10938C14.5625 8.33855 14.2031 9.41406 13.4844 10.3359C12.7656 11.2578 11.8073 11.9271 10.6094 12.3438C11.9948 12.7708 13.1068 13.4818 13.9453 14.4766C14.7839 15.4714 15.2031 16.6354 15.2031 17.9688C15.2031 20.0104 14.5208 21.5807 13.1562 22.6797C11.7917 23.7787 10.0365 24.3281 7.89062 24.3281C5.70311 24.3281 3.9349 23.7813 2.58594 22.6875C1.23697 21.5937 0.5625 20.0208 0.5625 17.9688C0.5625 16.625 0.973954 15.4557 1.79688 14.4609C2.6198 13.4661 3.72395 12.7552 5.10938 12.3281C3.91145 11.9115 2.96094 11.2448 2.25781 10.3281C1.55468 9.41145 1.20312 8.33855 1.20312 7.10938C1.20312 5.15103 1.82031 3.63021 3.05469 2.54688C4.28907 1.46354 5.89061 0.921875 7.85938 0.921875C9.81772 0.921875 11.4245 1.46614 12.6797 2.55469C13.9349 3.64323 14.5625 5.16145 14.5625 7.10938ZM13.3281 17.9844C13.3281 16.5469 12.8073 15.3776 11.7656 14.4766C10.724 13.5755 9.42188 13.125 7.85938 13.125C6.27603 13.125 4.97396 13.5755 3.95312 14.4766C2.93229 15.3776 2.42188 16.5469 2.42188 17.9844C2.42188 19.474 2.92708 20.6406 3.9375 21.4844C4.94792 22.3281 6.26562 22.75 7.89062 22.75C9.47397 22.75 10.776 22.3255 11.7969 21.4766C12.8177 20.6276 13.3281 19.4635 13.3281 17.9844ZM12.6875 7.09375C12.6875 5.78124 12.2266 4.69011 11.3047 3.82031C10.3828 2.95052 9.23438 2.51562 7.85938 2.51562C6.45312 2.51562 5.30209 2.93229 4.40625 3.76562C3.51041 4.59896 3.0625 5.70833 3.0625 7.09375C3.0625 8.43751 3.51302 9.51302 4.41406 10.3203C5.31511 11.1276 6.47395 11.5312 7.89062 11.5312C9.27605 11.5312 10.4219 11.1276 11.3281 10.3203C12.2344 9.51302 12.6875 8.43751 12.6875 7.09375Z"/>
</svg>
