<svg width="15" height="25" viewBox="0 0 15 25" fill="none" xmlns="http://www.w3.org/2000/svg">
<path opacity="0.870722" fill-rule="evenodd" clip-rule="evenodd" d="M8.10938 0.921875C8.89063 0.921875 9.66145 1.01042 10.4219 1.1875C11.1823 1.36458 11.8594 1.61979 12.4531 1.95312L11.9688 3.48438C11.375 3.15104 10.7865 2.90625 10.2031 2.75C9.61979 2.59375 8.92188 2.51562 8.10938 2.51562C6.42187 2.51562 5.02344 3.17187 3.91406 4.48438C2.80468 5.79688 2.25 7.52082 2.25 9.65625V11.6719C2.875 10.8594 3.67187 10.2083 4.64062 9.71875C5.60938 9.22916 6.68229 8.98438 7.85938 8.98438C9.90105 8.98438 11.5156 9.68749 12.7031 11.0938C13.8906 12.5 14.4844 14.3333 14.4844 16.5938C14.4844 18.8333 13.8464 20.6823 12.5703 22.1406C11.2943 23.599 9.63543 24.3281 7.59375 24.3281C5.49999 24.3281 3.77344 23.5469 2.41406 21.9844C1.05468 20.4219 0.375 18.2813 0.375 15.5625V9.82812C0.375 7.20311 1.11978 5.06251 2.60938 3.40625C4.09897 1.74999 5.93228 0.921875 8.10938 0.921875ZM7.48438 10.5156C6.22395 10.5156 5.1224 10.8437 4.17969 11.5C3.23697 12.1563 2.59375 13 2.25 14.0312V15.7031C2.25 17.8802 2.75 19.599 3.75 20.8594C4.75 22.1198 6.03124 22.75 7.59375 22.75C9.11459 22.75 10.3307 22.1537 11.2422 20.9609C12.1537 19.7682 12.6094 18.3125 12.6094 16.5938C12.6094 14.7708 12.1667 13.3021 11.2812 12.1875C10.3958 11.0729 9.13022 10.5156 7.48438 10.5156Z"/>
</svg>
