<svg width="16" height="24" viewBox="0 0 16 24" fill="none" xmlns="http://www.w3.org/2000/svg">
<path opacity="0.870722" fill-rule="evenodd" clip-rule="evenodd" d="M15.2648 24H1.13977V22.5625L8.5929 14.1094C9.9679 12.5573 10.9392 11.2578 11.507 10.2109C12.0747 9.16406 12.3585 8.16146 12.3585 7.20312C12.3585 5.78645 11.9601 4.65105 11.1632 3.79688C10.3663 2.9427 9.23874 2.51562 7.7804 2.51562C6.05122 2.51562 4.73873 2.99479 3.8429 3.95312C2.94706 4.91146 2.49915 6.1927 2.49915 7.79688H0.764771L0.733521 7.70312C0.681437 5.80728 1.29601 4.20313 2.57727 2.89062C3.85853 1.57812 5.59288 0.921875 7.7804 0.921875C9.73874 0.921875 11.3064 1.48437 12.4835 2.60938C13.6606 3.73438 14.2491 5.24478 14.2491 7.14062C14.2491 8.39063 13.8559 9.65885 13.0695 10.9453C12.283 12.2318 11.1867 13.6667 9.7804 15.25L3.51477 22.3438L3.54602 22.4219H15.2648V24Z"/>
</svg>
