<svg width="20" height="27" viewBox="0 0 20 27" fill="none" xmlns="http://www.w3.org/2000/svg">
<path fill-rule="evenodd" clip-rule="evenodd" d="M10.3965 26.5801C4.87695 26.5801 0.851562 22.291 0.851562 13.748C0.851562 5.0293 4.61328 0.0371094 10.6074 0.0371094C15.2305 0.0371094 18.2715 2.58594 18.9219 6.52344H15.6699C15.1426 4.16797 13.2793 2.84961 10.7129 2.84961C6.49414 2.84961 4.0332 6.36523 3.92773 13.2559H4.20898C5.45703 10.7949 7.93555 9.35352 10.959 9.35352C15.793 9.35352 19.291 12.9219 19.291 17.8438C19.291 22.9414 15.5996 26.5801 10.3965 26.5801ZM10.3613 23.8027C13.6133 23.8027 16.0918 21.2715 16.0918 17.9492C16.0918 14.4863 13.7539 12.0957 10.3965 12.0957C7.03906 12.0957 4.63086 14.4863 4.63086 17.8438C4.63086 21.2363 7.10938 23.8027 10.3613 23.8027Z" fill-opacity="0.9"/>
</svg>
