<svg width="20" height="27" viewBox="0 0 20 27" fill="none" xmlns="http://www.w3.org/2000/svg">
<path fill-rule="evenodd" clip-rule="evenodd" d="M10.0703 26.5977C4.69141 26.5977 0.929688 23.5566 0.929688 19.2148C0.929688 15.9102 3.02148 13.3438 6.20312 12.7461V12.4648C3.61914 11.7617 1.9668 9.56445 1.9668 6.80469C1.9668 2.84961 5.32422 0.0371094 10.0703 0.0371094C14.8164 0.0371094 18.1738 2.84961 18.1738 6.80469C18.1738 9.58203 16.5566 11.7441 13.9375 12.4648V12.7461C17.1191 13.3438 19.2109 15.9102 19.2109 19.2148C19.2109 23.5566 15.4492 26.5977 10.0703 26.5977ZM10.0703 23.8906C13.5859 23.8906 16.0117 21.8867 16.0117 18.9863C16.0117 16.0859 13.5859 14.082 10.0703 14.082C6.55469 14.082 4.12891 16.0859 4.12891 18.9863C4.12891 21.8867 6.55469 23.8906 10.0703 23.8906ZM10.0703 11.4102C13.0586 11.4102 15.0625 9.6875 15.0625 7.10352C15.0625 4.48438 13.0762 2.74414 10.0703 2.74414C7.06445 2.74414 5.07812 4.48438 5.07812 7.10352C5.07812 9.6875 7.08203 11.4102 10.0703 11.4102Z" fill-opacity="0.9"/>
</svg>
