<svg width="15" height="25" viewBox="0 0 15 25" fill="none" xmlns="http://www.w3.org/2000/svg">
<path opacity="0.870722" fill-rule="evenodd" clip-rule="evenodd" d="M6.98438 22.75C8.71355 22.75 10.0885 22.1719 11.1094 21.0156C12.1302 19.8594 12.6406 18.2031 12.6406 16.0469V13.7656C12.0885 14.724 11.3464 15.4635 10.4141 15.9844C9.48177 16.5052 8.44271 16.7656 7.29688 16.7656C5.22395 16.7656 3.55469 16.0469 2.28906 14.6094C1.02343 13.1719 0.390625 11.3125 0.390625 9.03125C0.390625 6.72916 1.05468 4.80209 2.38281 3.25C3.71094 1.69791 5.35416 0.921875 7.3125 0.921875C9.51043 0.921875 11.2708 1.63801 12.5938 3.07031C13.9167 4.50261 14.5781 6.58332 14.5781 9.3125V16.0156C14.5781 18.6511 13.8802 20.6953 12.4844 22.1484C11.0885 23.6016 9.25522 24.3281 6.98438 24.3281C6.17187 24.3281 5.35677 24.25 4.53906 24.0938C3.72135 23.9375 2.94271 23.6979 2.20312 23.375L2.54688 21.8125C3.25521 22.1458 3.95573 22.3854 4.64844 22.5312C5.34115 22.6771 6.11979 22.75 6.98438 22.75ZM7.29688 15.1875C8.65105 15.1875 9.78385 14.8411 10.6953 14.1484C11.6068 13.4557 12.2552 12.599 12.6406 11.5781V9.17188C12.6406 7.01561 12.1693 5.36719 11.2266 4.22656C10.2838 3.08593 9.00522 2.51562 7.39062 2.51562C5.92187 2.51562 4.71094 3.15104 3.75781 4.42188C2.80468 5.69271 2.32812 7.22916 2.32812 9.03125C2.32812 10.7813 2.77604 12.2448 3.67188 13.4219C4.56771 14.599 5.77603 15.1875 7.29688 15.1875Z"/>
</svg>
