<svg width="19" height="27" viewBox="0 0 19 27" fill="none" xmlns="http://www.w3.org/2000/svg">
<path fill-rule="evenodd" clip-rule="evenodd" d="M5.94141 14.3105V11.6035H8.94727C11.8652 11.6035 13.9395 9.74023 13.9395 7.10352C13.9395 4.73047 12.1289 2.79688 9.07031 2.79688C6.01172 2.79688 4.02539 4.36133 3.76172 7.20898H0.685547C1.00195 3.07812 4.14844 0.0371094 9.28125 0.0371094C14.291 0.0371094 17.1738 3.20117 17.1562 6.75195C17.1387 9.81055 15.2402 11.832 12.6387 12.5879V12.8691C15.9258 13.3965 18.1055 15.6289 18.1055 19.1621C18.1055 23.416 14.2207 26.5977 9.17578 26.5977C4.02539 26.5977 0.474609 23.7676 0.246094 19.4609H3.30469C3.58594 22.1328 5.87109 23.8379 9.14062 23.8379C12.4805 23.8379 14.8535 21.9219 14.8535 19.0742C14.8535 16.1387 12.6562 14.3105 9.08789 14.3105H5.94141Z" fill-opacity="0.9"/>
</svg>
