<svg width="15" height="25" viewBox="0 0 15 25" fill="none" xmlns="http://www.w3.org/2000/svg">
<path opacity="0.870722" fill-rule="evenodd" clip-rule="evenodd" d="M5.29572 11.6094H7.46759C9.12385 11.6094 10.379 11.1953 11.2332 10.3672C12.0874 9.53906 12.5145 8.47396 12.5145 7.17188C12.5145 5.7552 12.1134 4.625 11.3113 3.78125C10.5093 2.9375 9.31656 2.51562 7.73322 2.51562C6.27488 2.51562 5.07958 2.94531 4.14728 3.80469C3.21499 4.66407 2.74884 5.79687 2.74884 7.20312H0.998845L0.967595 7.10938C0.915511 5.33853 1.5353 3.86459 2.82697 2.6875C4.11864 1.51041 5.75404 0.921875 7.73322 0.921875C9.76448 0.921875 11.3817 1.47916 12.5848 2.59375C13.7879 3.70834 14.3895 5.2552 14.3895 7.23438C14.3895 8.3073 14.0561 9.3151 13.3895 10.2578C12.7228 11.2005 11.7853 11.901 10.577 12.3594C11.9936 12.7656 13.0535 13.4505 13.7567 14.4141C14.4598 15.3776 14.8113 16.5156 14.8113 17.8281C14.8113 19.849 14.1577 21.4375 12.8504 22.5938C11.5431 23.75 9.86344 24.3281 7.81134 24.3281C5.82175 24.3281 4.11344 23.763 2.68634 22.6328C1.25925 21.5026 0.571761 19.9323 0.623845 17.9219L0.655095 17.8281H2.40509C2.40509 19.276 2.90769 20.4583 3.91291 21.375C4.91812 22.2917 6.21759 22.75 7.81134 22.75C9.42594 22.75 10.6863 22.3307 11.5926 21.4922C12.4988 20.6536 12.952 19.4531 12.952 17.8906C12.952 16.2969 12.478 15.1172 11.5301 14.3516C10.5822 13.5859 9.22802 13.2031 7.46759 13.2031H5.29572V11.6094Z"/>
</svg>
