<svg width="12" height="12" viewBox="0 0 12 12" fill="none" xmlns="http://www.w3.org/2000/svg">
<path fill-rule="evenodd" clip-rule="evenodd" d="M3.44648 8.38574C3.44648 8.38574 -1.19886 3.67726 0.296655 1.03238C0.296655 1.03238 1.229 0.0867568 2.15151 0.000302692C2.22118 -0.00639813 2.30115 0.0997066 2.35005 0.164601C2.35961 0.177286 2.36799 0.188397 2.37486 0.196782C2.75476 0.659647 3.05782 1.19926 3.35207 1.7232C3.36851 1.75247 3.38492 1.78169 3.40132 1.81085C3.58048 2.12969 3.75347 2.45277 3.91473 2.78181C3.92602 2.80482 3.9377 2.82714 3.94918 2.8491C4.01116 2.96755 4.06746 3.07515 4.02608 3.21997C3.99238 3.33791 3.93085 3.44715 3.86978 3.55557C3.84255 3.60392 3.81541 3.65211 3.79087 3.70083C3.6073 4.0656 3.38778 4.41387 3.14836 4.74689C3.14836 4.74689 3.18391 5.33432 4.90766 7.08115C6.52966 8.7249 7.22729 8.76128 7.22729 8.76128C7.53148 8.61681 7.78557 8.47362 8.04761 8.32596C8.16721 8.25856 8.28846 8.19023 8.41689 8.12042C8.5324 8.05772 8.66116 8.01608 8.78589 7.97794C8.99603 7.91385 9.18448 8.02242 9.35858 8.12272C9.36369 8.12567 9.36879 8.1286 9.37387 8.13153C9.48538 8.19568 9.59705 8.25961 9.70871 8.32353C10.1631 8.58367 10.6176 8.84383 11.0622 9.11987C11.293 9.26303 11.5252 9.40813 11.7395 9.5747C11.7491 9.5822 11.7619 9.59143 11.7766 9.60206C11.862 9.66368 12.0126 9.77244 11.9959 9.86469C11.7974 10.9538 10.9624 11.6869 10.9624 11.6869C8.2728 13.2614 3.44648 8.38574 3.44648 8.38574ZM8.27879 0.00636439H11.9794V3.70311H11.0559V1.58247L7.68072 4.95404L7.35363 5.28079L6.69944 4.62729L7.02653 4.30054L10.3909 0.939756H8.27879V0.00636439Z" fill="#8E8E93"/>
</svg>
