<svg width="22" height="23" viewBox="0 0 22 23" fill="none" xmlns="http://www.w3.org/2000/svg">
<path fill-rule="evenodd" clip-rule="evenodd" d="M11 22.9258C17.0751 22.9258 22 18.0009 22 11.9258C22 5.85065 17.0751 0.925781 11 0.925781C4.92487 0.925781 0 5.85065 0 11.9258C0 18.0009 4.92487 22.9258 11 22.9258ZM16.3099 14.5404C16.2307 14.6584 16.0571 14.6584 15.9778 14.5404L14.3204 12.0726C14.2312 11.9397 14.3264 11.7611 14.4865 11.7611H17.8013C17.9613 11.7611 18.0565 11.9397 17.9673 12.0726L16.3099 14.5404ZM16.652 11.761C16.652 8.69659 14.1494 6.21236 11.0623 6.21236C9.26814 6.21236 7.61499 7.05783 6.56752 8.46188L7.38427 9.06227C8.24206 7.91247 9.59369 7.22121 11.0623 7.22121C13.5881 7.22121 15.6357 9.25376 15.6357 11.761H16.652ZM10.9377 17.6258C7.85057 17.6258 5.34794 15.1416 5.34794 12.0771H4.1987C4.03865 12.0771 3.94344 11.8985 4.03267 11.7656L5.69007 9.29778C5.76932 9.17979 5.94289 9.17978 6.02213 9.29778L7.67954 11.7656C7.76877 11.8985 7.67355 12.0771 7.51351 12.0771H6.36426C6.36426 14.5844 8.41187 16.6169 10.9377 16.6169C12.4063 16.6169 13.7579 15.9257 14.6157 14.7759L15.4325 15.3763C14.385 16.7803 12.7318 17.6258 10.9377 17.6258Z"/>
</svg>
