<svg width="210" height="210" viewBox="0 0 210 210" fill="none" xmlns="http://www.w3.org/2000/svg">
<path d="M7.5 55V57.5H10V55H7.5ZM2.5 55H0V57.5H2.5V55ZM55 2.5H57.5V0H55V2.5ZM55 7.5V10H57.5V7.5H55ZM155 7.5H152.5V10H155V7.5ZM155 2.5V0H152.5V2.5H155ZM207.5 55V57.5H210V55H207.5ZM202.5 55H200V57.5H202.5V55ZM202.5 155V152.5H200V155H202.5ZM207.5 155H210V152.5H207.5V155ZM155 207.5H152.5V210H155V207.5ZM155 202.5V200H152.5V202.5H155ZM7.5 155H10V152.5H7.5V155ZM55 202.5H57.5V200H55V202.5ZM55 207.5V210H57.5V207.5H55ZM2.5 155V152.5H0V155H2.5ZM10 9C10 9.55228 9.55228 10 9 10V5C6.79086 5 5 6.79086 5 9H10ZM10 55V9H5V55H10ZM2.5 57.5H7.5V52.5H2.5V57.5ZM0 9V55H5V9H0ZM9 0C4.02944 0 0 4.02944 0 9H5C5 6.79086 6.79086 5 9 5V0ZM55 0H9V5H55V0ZM57.5 7.5V2.5H52.5V7.5H57.5ZM9 10H55V5H9V10ZM155 10H201V5H155V10ZM152.5 2.5V7.5H157.5V2.5H152.5ZM201 0H155V5H201V0ZM210 9C210 4.02944 205.971 0 201 0V5C203.209 5 205 6.79086 205 9H210ZM210 55V9H205V55H210ZM202.5 57.5H207.5V52.5H202.5V57.5ZM200 9V55H205V9H200ZM201 10C200.448 10 200 9.55229 200 9H205C205 6.79086 203.209 5 201 5V10ZM200 155V201H205V155H200ZM207.5 152.5H202.5V157.5H207.5V152.5ZM210 201V155H205V201H210ZM201 210C205.971 210 210 205.971 210 201H205C205 203.209 203.209 205 201 205V210ZM155 210H201V205H155V210ZM152.5 202.5V207.5H157.5V202.5H152.5ZM201 200H155V205H201V200ZM200 201C200 200.448 200.448 200 201 200V205C203.209 205 205 203.209 205 201H200ZM10 201V155H5V201H10ZM9 200C9.55229 200 10 200.448 10 201H5C5 203.209 6.79086 205 9 205V200ZM55 200H9V205H55V200ZM57.5 207.5V202.5H52.5V207.5H57.5ZM9 210H55V205H9V210ZM0 201C0 205.971 4.02944 210 9 210V205C6.79086 205 5 203.209 5 201H0ZM0 155V201H5V155H0ZM7.5 152.5H2.5V157.5H7.5V152.5Z" fill="black" fill-opacity="0.9"/>
</svg>
