<svg width="20" height="20" viewBox="0 0 20 20" fill="none" xmlns="http://www.w3.org/2000/svg">
<path opacity="0.870722" fill-rule="evenodd" clip-rule="evenodd" d="M14.2962 12.5779H13.3882L13.0726 12.2646C14.1875 10.9645 14.8656 9.27906 14.8656 7.43239C14.8656 3.32743 11.538 0 7.43282 0C3.32762 0 0 3.32743 0 7.43239C0 11.5374 3.32762 14.8648 7.43282 14.8648C9.27959 14.8648 10.964 14.1879 12.2642 13.0742L12.5798 13.3875V14.2931L18.295 20L20 18.2951L14.2962 12.5779ZM7.43282 12.5779C4.59005 12.5779 2.28702 10.275 2.28702 7.43239C2.28702 4.59093 4.59005 2.28689 7.43282 2.28689C10.2744 2.28689 12.5786 4.59093 12.5786 7.43239C12.5786 10.275 10.2744 12.5779 7.43282 12.5779Z" />
</svg>
