<svg width="28" height="28" viewBox="0 0 28 28" fill="none" xmlns="http://www.w3.org/2000/svg">
<path fill-rule="evenodd" clip-rule="evenodd" d="M14 28C21.732 28 28 21.732 28 14C28 6.26801 21.732 0 14 0C6.26801 0 0 6.26801 0 14C0 21.732 6.26801 28 14 28ZM19.5286 14.6302L14.8673 9.96893V21.1295C14.8673 21.6103 14.479 22 14 22C13.521 22 13.1327 21.6103 13.1327 21.1295V9.98719L8.46915 14.6507C8.12919 14.9907 7.57903 14.9917 7.24033 14.653C6.90163 14.3143 6.90265 13.7642 7.24261 13.4242L13.3981 7.26867C13.7381 6.92871 14.2883 6.92768 14.627 7.26638L20.7597 13.3991C21.0984 13.7378 21.0973 14.288 20.7574 14.6279C20.4174 14.9679 19.8673 14.9689 19.5286 14.6302Z"/>
</svg>
