<svg width="25" height="25" viewBox="0 0 25 25" fill="none" xmlns="http://www.w3.org/2000/svg">
<path fill-rule="evenodd" clip-rule="evenodd" d="M7.03974 24.1161L9.43134 25L10.7392 23.3974C11.6486 22.283 13.3514 22.283 14.2608 23.3974L15.5687 25L17.9603 24.1161L17.9473 21.9826C17.9386 20.5557 19.2316 19.4739 20.6345 19.7342L22.6617 20.1102L23.9343 17.8721L22.5551 16.2239C21.6494 15.1415 21.9389 13.5039 23.1609 12.7977L25 11.7348L24.5581 9.18973L22.4988 8.8343C21.102 8.59321 20.2642 7.14624 20.7506 5.81481L21.4894 3.79266L19.5397 2.13147L17.7748 3.18096C16.5413 3.91444 14.9451 3.33519 14.4691 1.98132L13.7725 0H11.2275L10.5309 1.98132C10.0549 3.33519 8.45871 3.91444 7.2252 3.18096L5.46026 2.13147L3.51061 3.79266L4.24936 5.81481C4.73578 7.14624 3.89804 8.59321 2.50119 8.8343L0.44195 9.18973L0 11.7348L1.83909 12.7977C3.06107 13.5039 3.3506 15.1415 2.44488 16.2239L1.06573 17.8721L2.33828 20.1102L4.36547 19.7342C5.76841 19.4739 7.06135 20.5557 7.05269 21.9826L7.03974 24.1161ZM12.5 19.3182C16.2656 19.3182 19.3182 16.2656 19.3182 12.5C19.3182 8.73442 16.2656 5.68182 12.5 5.68182C8.73442 5.68182 5.68182 8.73442 5.68182 12.5C5.68182 16.2656 8.73442 19.3182 12.5 19.3182Z"/>
</svg>
