<svg width="125" height="22" viewBox="0 0 125 22" fill="none" xmlns="http://www.w3.org/2000/svg">
<path fill-rule="evenodd" clip-rule="evenodd" d="M78.122 15.912H79.796V0H78.122V15.912ZM29.5747 15.912H26.5838V0.398909H29.5747V15.912ZM4.06234 3.54586H0V0.842141H11.1603V3.54586H7.14258V15.912H4.06234V3.54586ZM22.9679 11.6348H16.4056C16.4205 12.3145 16.5991 12.8057 16.9413 13.1086C17.2836 13.4115 17.7895 13.5629 18.4591 13.5629C19.843 13.5629 21.078 13.5186 22.1643 13.4299L22.7893 13.3634L22.8339 15.5574C21.1524 15.9711 19.6049 16.178 18.1913 16.178C16.5098 16.178 15.2896 15.7347 14.5307 14.8483C13.7718 13.9618 13.3923 12.5213 13.3923 10.5268C13.3923 6.55243 15.0366 4.56529 18.3252 4.56529C21.5691 4.56529 23.1911 6.23478 23.1911 9.57381L22.9679 11.6348ZM20.2448 9.37436H16.3833C16.3982 8.51744 16.5507 7.908 16.8409 7.54602C17.131 7.18405 17.6332 7.00306 18.3475 7.00306C19.0618 7.00306 19.5565 7.17666 19.8318 7.52386C20.1071 7.87106 20.2448 8.48789 20.2448 9.37436ZM40.735 4.91987C39.5595 4.68348 38.5699 4.56529 37.7664 4.56529C36.1147 4.56529 34.9168 5.0196 34.1728 5.92823C33.4288 6.83686 33.0568 8.31059 33.0568 10.3495C33.0568 12.3883 33.4176 13.8695 34.1393 14.7929C34.861 15.7163 36.0477 16.178 37.6994 16.178C38.5476 16.178 39.7604 16.0228 41.3377 15.7126L41.2484 13.3413L38.6592 13.5186C38.1384 13.5186 37.7106 13.4669 37.3758 13.3634C37.041 13.26 36.7806 13.0864 36.5946 12.8426C36.4086 12.5989 36.2784 12.2738 36.204 11.8675C36.1296 11.4612 36.0924 10.9552 36.0924 10.3495C36.0924 9.74371 36.1296 9.24139 36.204 8.84248C36.2784 8.44357 36.4086 8.12223 36.5946 7.87845C36.7806 7.63467 37.041 7.46477 37.3758 7.36873C37.7106 7.2727 38.131 7.22468 38.6369 7.22468C38.9196 7.22468 39.2767 7.23945 39.7083 7.269C40.1398 7.29855 40.6532 7.34288 41.2484 7.40197L41.3377 5.05284L40.735 4.91987ZM49.2168 4.56529C51.062 4.56529 52.3789 5.07131 53.1676 6.08336C53.9562 7.09541 54.3506 8.51743 54.3506 10.3495C54.3506 14.2352 52.6393 16.178 49.2168 16.178C45.7943 16.178 44.0831 14.2352 44.0831 10.3495C44.0831 9.463 44.1724 8.66519 44.351 7.95601C44.5295 7.24684 44.8197 6.64109 45.2215 6.13876C45.6232 5.63643 46.1515 5.24861 46.8062 4.97528C47.461 4.70195 48.2645 4.56529 49.2168 4.56529ZM50.8686 12.8648C50.571 13.3893 50.0204 13.6515 49.2168 13.6515C48.7258 13.6515 48.3426 13.5518 48.0673 13.3524C47.792 13.1529 47.5837 12.8944 47.4424 12.5767C47.301 12.2591 47.2117 11.9045 47.1745 11.5129C47.1373 11.1214 47.1187 10.7336 47.1187 10.3495C47.1187 9.19706 47.2675 8.366 47.5651 7.85629C47.8627 7.34657 48.4133 7.09171 49.2168 7.09171C50.0204 7.09171 50.571 7.34657 50.8686 7.85629C51.1662 8.366 51.315 9.19706 51.315 10.3495C51.315 11.5019 51.1662 12.3403 50.8686 12.8648ZM63.3904 14.405L66.9394 0.576202H68.725L64.685 15.912H60.8459L56.8058 0.576202H58.5915L62.1404 14.405H63.3904ZM71.9838 15.912H73.6579V4.83123H71.9838V15.912ZM73.6579 2.32697H71.9838V0.398909H73.6579V2.32697ZM86.0681 15.912H84.3941V0H86.0681V15.912ZM98.4114 13.851V8.17763C98.4114 6.93657 98.1249 6.03165 97.552 5.46283C96.9791 4.89402 96.0603 4.60961 94.7954 4.60961C93.486 4.60961 92.0351 4.77213 90.4429 5.09717L90.5099 6.36038L91.2018 6.29389C91.8417 6.22002 92.4704 6.16462 93.0879 6.12768C93.7055 6.09074 94.3118 6.07228 94.907 6.07228C95.4725 6.07228 95.9189 6.23479 96.2463 6.55983C96.5736 6.88487 96.7373 7.42413 96.7373 8.17763V9.13058L93.233 9.463C92.0574 9.5812 91.1944 9.89515 90.6438 10.4049C90.0932 10.9146 89.8179 11.7087 89.8179 12.7872C89.8179 13.8658 90.0858 14.6931 90.6215 15.2693C91.1572 15.8455 91.9384 16.1336 92.9651 16.1336C94.3193 16.1336 95.6585 15.8382 96.9828 15.2472C97.5781 15.8382 98.4634 16.1336 99.639 16.1336L99.706 14.8261C98.8875 14.7227 98.456 14.3977 98.4114 13.851ZM91.5366 12.6986C91.5366 14.0578 92.1021 14.7375 93.233 14.7375C94.23 14.7375 95.227 14.5676 96.2239 14.2277L96.7373 14.0505V10.3938L93.4339 10.7041C92.7643 10.7631 92.2806 10.9552 91.983 11.2803C91.6854 11.6053 91.5366 12.0781 91.5366 12.6986ZM104.884 20.9538C105.494 21.0646 106.246 21.12 107.139 21.12C110.442 21.12 112.094 19.9454 112.094 17.5963C112.094 16.961 112.019 16.4328 111.871 16.0118C111.722 15.5907 111.484 15.2546 111.156 15.0034C110.829 14.7522 110.412 14.5786 109.906 14.4826C109.401 14.3866 108.79 14.3386 108.076 14.3386C106.677 14.3386 105.822 14.2795 105.509 14.1613C105.227 14.0578 105.085 13.7771 105.085 13.3191C105.085 13.1123 105.219 12.6912 105.487 12.0559C105.785 12.115 106.149 12.1446 106.581 12.1446C108.069 12.1446 109.159 11.8675 109.851 11.3135C110.543 10.7595 110.889 9.78805 110.889 8.39925C110.889 7.40936 110.643 6.67064 110.152 6.18309L112.272 6.22741V4.80907L108.969 4.89771L108.634 4.83123C108.054 4.68348 107.392 4.60961 106.648 4.60961C103.865 4.60961 102.474 5.87281 102.474 8.39925C102.474 10.0983 103.061 11.2138 104.237 11.7456L104.036 12.1002C103.664 12.7799 103.478 13.2452 103.478 13.4964C103.478 14.2351 103.686 14.7448 104.103 15.0256C103.791 15.262 103.523 15.4799 103.3 15.6793C103.076 15.8788 102.894 16.0856 102.753 16.2999C102.611 16.5141 102.507 16.7357 102.44 16.9647C102.373 17.1937 102.34 17.4633 102.34 17.7736C102.34 18.4089 102.422 18.9408 102.585 19.3692C102.749 19.7977 103.021 20.1412 103.4 20.3997C103.779 20.6583 104.274 20.843 104.884 20.9538ZM104.148 8.39924C104.148 9.28571 104.345 9.90993 104.739 10.2719C105.134 10.6339 105.785 10.8149 106.692 10.8149C107.6 10.8149 108.247 10.6302 108.634 10.2608C109.021 9.89146 109.215 9.26355 109.215 8.37708C109.215 7.49061 109.021 6.8664 108.634 6.50443C108.247 6.14245 107.6 5.96147 106.692 5.96147C105.785 5.96147 105.134 6.14615 104.739 6.51551C104.345 6.88487 104.148 7.51278 104.148 8.39924ZM104.148 18.6379C104.044 18.372 103.992 18.0395 103.992 17.6406C103.992 17.2269 104.077 16.8871 104.248 16.6212C104.419 16.3553 104.75 16.045 105.241 15.6904L107.652 15.8012C108.188 15.8012 108.634 15.8234 108.991 15.8677C109.348 15.912 109.631 16.0007 109.839 16.1336C110.048 16.2666 110.193 16.4513 110.275 16.6877C110.357 16.9241 110.397 17.2269 110.397 17.5963C110.397 18.3646 110.145 18.9112 109.639 19.2363C109.133 19.5613 108.284 19.7238 107.094 19.7238C106.499 19.7238 106.004 19.6906 105.61 19.6241C105.215 19.5576 104.899 19.4431 104.661 19.2806C104.423 19.1181 104.252 18.9038 104.148 18.6379ZM123.009 14.538L123.656 14.4715L123.701 15.7791C122.852 15.8973 122.067 15.9859 121.346 16.045C120.624 16.1041 119.958 16.1336 119.348 16.1336C117.741 16.1336 116.603 15.6719 115.933 14.7485C115.263 13.8251 114.929 12.3883 114.929 10.4381C114.929 6.55243 116.484 4.60961 119.594 4.60961C121.111 4.60961 122.239 5.02698 122.975 5.86174C123.712 6.6965 124.08 8.00771 124.08 9.79543L123.991 11.0586H116.625C116.625 12.2997 116.848 13.212 117.295 13.7956C117.741 14.3792 118.522 14.671 119.638 14.671C120.754 14.671 121.878 14.6267 123.009 14.538ZM122.406 9.72894H116.603C116.617 8.42879 116.874 7.48324 117.373 6.89226C117.871 6.30128 118.619 6.00579 119.616 6.00579C120.598 6.00579 121.309 6.2865 121.748 6.84793C122.186 7.40936 122.406 8.36969 122.406 9.72894Z" fill="white"/>
</svg>
