<svg width="207" height="34" viewBox="0 0 207 34" fill="none" xmlns="http://www.w3.org/2000/svg">
<path fill-rule="evenodd" clip-rule="evenodd" d="M97.2924 33.0979V24.9326L99.9254 22.2472L107.298 33.0979H113.814L104.555 19.7583L113.42 9.6499H106.618L97.2924 19.9548V0H91.3243V33.0979H97.2924ZM20.4715 10.1084L14.2401 33.0979H8.40365L0 0.873294H6.31919L11.9143 23.1641L17.5972 0.873294H23.1045L29.5993 22.924L34.8653 0.873294H41.1186L32.7369 33.0979H27.2734L20.4715 10.1084ZM60.2309 33.076C58.8851 33.4253 57.2761 33.6 55.4037 33.6C48.5872 33.6 45.1789 31.0674 45.1789 26.0023V16.7673C45.1789 14.3657 46.0748 12.4954 47.8667 11.1563C49.6586 9.81728 52.1673 9.14776 55.3927 9.14776C58.6181 9.14776 61.1305 9.82092 62.9297 11.1673C64.7289 12.5136 65.6285 14.3802 65.6285 16.7673V26.0023C65.6285 29.7721 63.8293 32.13 60.2309 33.076ZM55.4037 29.4737C53.9848 29.4737 52.9206 29.2262 52.2112 28.7314C51.5017 28.2365 51.147 27.4142 51.147 26.2643V16.5053C51.147 14.3657 52.5659 13.2959 55.4037 13.2959C56.808 13.2959 57.8685 13.5433 58.5852 14.0382C59.302 14.5331 59.6604 15.3554 59.6604 16.5053V26.2643C59.6604 28.4039 58.2415 29.4737 55.4037 29.4737ZM78.4215 17.3786V33.0979H72.4534V9.6499H78.4215V12.4444C78.7726 11.7749 79.504 11.1782 80.6157 10.6542C82.5319 9.73723 84.3824 9.27875 86.1669 9.27875C86.3717 9.27875 86.5619 9.28603 86.7374 9.30058L86.6058 14.3439C83.9874 14.4749 81.8152 14.9624 80.0891 15.8066C79.1237 16.2724 78.5678 16.7964 78.4215 17.3786ZM141.339 24.2339C141.339 30.4634 137.88 33.5782 130.961 33.5782C126.367 33.5782 122.367 32.5957 118.959 30.6308L120.516 27.2686C121.833 28.04 123.431 28.695 125.311 29.2335C127.19 29.7721 129.019 30.0413 130.796 30.0413C132.573 30.0413 133.915 29.8157 134.822 29.3645C136.446 28.5494 137.258 26.8902 137.258 24.3867C137.258 23.3533 137.207 22.662 137.104 22.3127C136.768 21.1483 135.532 20.2313 133.396 19.5618L125.738 17.0292C123.266 16.2287 121.617 15.2135 120.791 13.9836C119.964 12.7537 119.551 11.1782 119.551 9.25692C119.566 6.49149 120.582 4.38103 122.601 2.92554C124.342 1.68837 126.872 1.06251 130.193 1.04795C134.917 1.04795 138.465 1.78298 140.834 3.25302L139.759 6.6807C137.155 5.28343 134.223 4.58479 130.961 4.58479C128.693 4.58479 126.967 4.87589 125.782 5.45809C124.598 6.04029 123.961 6.97908 123.873 8.27446C123.844 8.682 123.83 9.04587 123.83 9.36608C123.83 10.414 124.053 11.2218 124.499 11.7895C124.945 12.3571 125.812 12.8593 127.099 13.2959L135.086 15.9813C137.28 16.7236 138.871 17.6951 139.858 18.8959C140.845 20.0967 141.339 21.876 141.339 24.2339ZM153.565 5.78557V1.52826H149.44V5.78557H153.565ZM153.565 9.95555V33.0979H149.44V9.95555H153.565ZM170.46 33.5782C171.601 33.5782 172.756 33.3817 173.926 32.9887C175.097 32.5957 176.04 32.1227 176.757 31.5696L177.437 33.0979H180.246V0.218324H176.121V10.3922C174.555 9.81001 172.837 9.51891 170.964 9.51891C167.673 9.51891 165.23 10.1739 163.636 11.4838C162.041 12.7938 161.244 14.6495 161.244 17.0511V25.784C161.244 28.171 161.986 30.0668 163.471 31.4713C164.956 32.8759 167.285 33.5782 170.46 33.5782ZM166.85 29.2554C167.838 29.9831 168.997 30.347 170.328 30.347C172.698 30.347 174.629 29.8885 176.121 28.9715V13.6234C174.789 12.983 173.173 12.6628 171.271 12.6628C167.337 12.6628 165.369 13.9727 165.369 16.5926V26.0897C165.369 27.4724 165.863 28.5276 166.85 29.2554ZM197.25 33.5782C198.947 33.5782 200.311 33.4908 201.342 33.3162C202.374 33.1415 203.259 32.8031 203.997 32.301C204.736 31.7988 205.277 31.1257 205.621 30.2815C205.965 29.4373 206.21 28.3238 206.356 26.9411H202.714C202.626 27.8872 202.491 28.524 202.308 28.8515C202.125 29.1789 201.979 29.4227 201.869 29.5828C201.759 29.7429 201.566 29.8812 201.288 29.9977C201.01 30.1141 200.739 30.216 200.476 30.3033C200.212 30.3906 199.071 30.4343 197.053 30.4343C195.034 30.4343 193.637 30.0595 192.862 29.3099C192.087 28.5604 191.699 27.2249 191.699 25.3037V22.0507H206.4V16.5489C206.4 14.2929 205.628 12.5572 204.085 11.3419C202.542 10.1266 200.187 9.51891 197.02 9.51891C193.853 9.51891 191.487 10.1739 189.922 11.4838C188.357 12.7938 187.574 14.5913 187.574 16.8764V24.9326C187.574 27.8726 188.335 30.0486 189.856 31.4604C191.377 32.8723 193.842 33.5782 197.25 33.5782ZM191.699 19.278H202.407V16.1123C202.407 14.8023 201.957 13.8999 201.057 13.4051C200.158 12.9102 198.837 12.6628 197.097 12.6628C195.356 12.6628 194.021 12.9611 193.092 13.5579C192.164 14.1546 191.699 15.1371 191.699 16.5053V19.278Z" />
</svg>
